<svg xmlns="http://www.w3.org/2000/svg" xmlns:xlink="http://www.w3.org/1999/xlink" viewBox="-3160 -3340 6330 6680"><defs><path id="d" d="M0-2299 742-1286A2e3 2e3 0 0 1 1991-1150 2e3 2e3 0 0 0 1522-2637 2e3 2e3 0 0 0 0-2299"/><path id="c" d="M0-2304A2e3 2e3 0 0 1 742-1286L0-959A2e3 2e3 0 0 0 -746-1286 2e3 2e3 0 0 1 0-2304"/><path id="b" d="M0-962 362-627A2e3 2e3 0 0 1 835-480 2e3 2e3 0 0 0 748-1286 2e3 2e3 0 0 0 0-962"/><path id="a" d="M0-965A2e3 2e3 0 0 1 362-627 2e3 2e3 0 0 0 -370-627 2e3 2e3 0 0 1 0-965"/></defs><circle cx="-1160" cy="-670" r="2000" fill="#f8df92"/><circle cx="1160" cy="-670" r="2000" fill="#dbc2a6"/><circle cx="-1160" cy="670" r="2000" fill="#b99e89"/><circle cx="1160" cy="670" r="2000" fill="#f4777c"/><circle cy="-1340" r="2000" fill="#67b8d9"/><circle cy="1340" r="2000" fill="#e8779d"/><rect width="1450" height="1332" x="-725" y="-666" fill="#37100d"/><use fill="#588b8d" xlink:href="#d"/><use fill="#567a50" xlink:href="#c"/><use fill="#533928" xlink:href="#b"/><use fill="#3c2315" xlink:href="#a"/><g transform="rotate(60)"><use fill="#d25a51" xlink:href="#d"/><use fill="#554145" xlink:href="#c"/><use fill="#4d1e2b" xlink:href="#b"/><use fill="#4b1a18" xlink:href="#a"/></g><g transform="rotate(120)"><use fill="#de374c" xlink:href="#d"/><use fill="#bf2a32" xlink:href="#c"/><use fill="#8a1a1b" xlink:href="#b"/><use fill="#381317" xlink:href="#a"/></g><g transform="rotate(180)"><use fill="#a84954" xlink:href="#d"/><use fill="#a12229" xlink:href="#c"/><use fill="#9d1e18" xlink:href="#b"/><use fill="#87170f" xlink:href="#a"/></g><g transform="rotate(240)"><use fill="#b48a4f" xlink:href="#d"/><use fill="#a34031" xlink:href="#c"/><use fill="#422e29" xlink:href="#b"/><use fill="#3f1514" xlink:href="#a"/></g><g transform="rotate(300)"><use fill="#64a17c" xlink:href="#d"/><use fill="#486443" xlink:href="#c"/><use fill="#3f4b2b" xlink:href="#b"/><use fill="#38231b" xlink:href="#a"/></g><path id="l" fill="#fff" d="M-121-1019A1110 1110 0 1 0 411-543 577 577 0 0 0 65-284 666 666 0 1 1-469-672 1220 1220 0 0 1-121-1019"/><use transform="rotate(180)" xlink:href="#l"/></svg>