<svg xmlns="http://www.w3.org/2000/svg" xmlns:xlink="http://www.w3.org/1999/xlink" viewBox="0 0 1000 936"><radialGradient id="f" cx="503" cy="438" r="498" gradientUnits="userSpaceOnUse"><stop offset=".64" stop-color="#fff" stop-opacity=".6"/><stop offset=".67" stop-color="#fffaee" stop-opacity=".64"/><stop offset=".74" stop-color="#fff2cd" stop-opacity=".71"/><stop offset=".83" stop-color="#ffe698" stop-opacity=".82"/><stop offset=".95" stop-color="#fed848" stop-opacity=".94"/><stop offset="1" stop-color="#fed208"/></radialGradient><path fill="url(#f)" d="m2 391a500 500 1 1 0 996 0"/><circle cx="500" cy="508" r="230" fill="#fedb2f"/><g id="l"><path fill="#4ec6f2" d="m297 619a230 230 0 0 1-177-422l306-174"/><path fill="#0795c5" d="m372 106 128 286-67 118a230 230 0 0 1-135.5 109 230 230 0 0 1-18.5-173"/></g><use transform="matrix(-1 0 0 1 1e3 0)" xlink:href="#l"/><path fill="#0a529e" d="m500 392 114-199.31a130 130 0 1 0-228 0"/></svg>