<svg xmlns="http://www.w3.org/2000/svg" xmlns:xlink="http://www.w3.org/1999/xlink" fill="#057" viewBox="-160 -160 360 320"><path id="f" d="m123 0a123 123 0 0 1-246 0a123 123 0 0 1 246 0"/><circle r="160"/><circle r="150" fill="#fff"/><text font-family="Impact" font-size="28" font-stretch="condensed"><animateTransform attributeName="transform" dur="10s" from="360 0 0" repeatCount="indefinite" to="0 0 0" type="rotate"/> <textPath xlink:href="#f">I thought what I&apos;d do was, I&apos;d pretend I was one of those deaf-mutes</textPath></text><circle r="115"/><circle r="95" fill="#fff"/><path d="m-8-119h16 l2 5h-20z"/><circle cx="160" cy="0" r="40"/><path d="m-95-20v-20h255a40 40 0 0 1 0 80h-55v-20z"/><path d="m-85 0a85 85 0 0 0 170 0h-20a65 65 0 0 1-130 0z"/><path d="m-65 20v20h140v-20z"/><path fill="#fff" d="m-115-20v10h25v30h250a20 20 0 0 0 0 -40z"/><path d="m-20 10c-17-14-27-14-44 0 6-25 37-25 44 0z"/><path d="m60 10c-17-14-27-14-44 0 6-25 37-25 44 0z"/></svg>