<svg xmlns="http://www.w3.org/2000/svg" xmlns:xlink="http://www.w3.org/1999/xlink" viewBox="6 3 177 153"><style>@import url(http://fonts.googleapis.com/css?family=Bitter:700&amp;text=WebPlatform.org);</style><defs><path id="l" fill-rule="evenodd" d="m-15.5,0v85a15.5,15.5 0 0 0 31,0v-85a15.5,15.5 0 0 0 -31,0zm9,0a6.5,6.5 0 0,0 13,0a6.5,6.5 0 0,0 -13,0zm0,85a6.5,6.5 0 0,0 13,0a6.5,6.5 0 0,0 -13,0z"/><path id="i" fill-rule="evenodd" d="m-15.5,0v60.81118318204309a15.5,15.5 0 0 0 31,0v-60.81118318204309a15.5,15.5 0 0 0 -31,0zm9,0a6.5,6.5 0 0,0 13,0a6.5,6.5 0 0,0 -13,0zm0,60.81118318204309a6.5,6.5 0 0,0 13,0a6.5,6.5 0 0,0 -13,0z"/><clipPath id="o"><use transform="translate(52,19)" xlink:href="#l"/></clipPath><clipPath id="r"><use transform="translate(52,104)rotate(-135)" xlink:href="#i"/></clipPath><clipPath id="p"><use transform="translate(138,19)" xlink:href="#l"/></clipPath></defs><g transform="translate(-.5,-.5)"><use fill="#f89c20" transform="translate(52,19)" xlink:href="#l"/><use fill="#e54e26" transform="translate(52,104)rotate(-135)" xlink:href="#i"/><use fill="#2eb3c4" transform="translate(138,19)" xlink:href="#l"/><use fill="#694d9f" transform="translate(138,104)rotate(135)" xlink:href="#i"/><g clip-path="url(#o)"><use fill="#d02e27" transform="translate(52,104)rotate(-135)" xlink:href="#i"/></g><g clip-path="url(#r)"><use fill="#7f1333" transform="translate(138,104)rotate(135)" xlink:href="#i"/></g><g clip-path="url(#p)"><use fill="#263c81" transform="translate(138,104)rotate(135)" xlink:href="#i"/></g><text x="95" y="150" fill="#474747" font-family="Bitter" font-size="20" font-weight="bold" text-anchor="middle">WebPlatform<tspan fill="#a3a3a3">.org</tspan></text></g></svg>